<svg id="visual" viewBox="0 0 960 540" width="960" height="540" xmlns="http://www.w3.org/2000/svg" xmlns:xlink="http://www.w3.org/1999/xlink" version="1.1"><rect x="0" y="0" width="960" height="540" fill="#001220"></rect><defs><linearGradient id="grad1_0" x1="43.8%" y1="0%" x2="100%" y2="100%"><stop offset="14.444444444444446%" stop-color="#fbae3c" stop-opacity="1"></stop><stop offset="85.55555555555554%" stop-color="#fbae3c" stop-opacity="1"></stop></linearGradient></defs><defs><linearGradient id="grad1_1" x1="43.8%" y1="0%" x2="100%" y2="100%"><stop offset="14.444444444444446%" stop-color="#fbae3c" stop-opacity="1"></stop><stop offset="85.55555555555554%" stop-color="#f48350" stop-opacity="1"></stop></linearGradient></defs><defs><linearGradient id="grad1_2" x1="43.8%" y1="0%" x2="100%" y2="100%"><stop offset="14.444444444444446%" stop-color="#d96162" stop-opacity="1"></stop><stop offset="85.55555555555554%" stop-color="#f48350" stop-opacity="1"></stop></linearGradient></defs><defs><linearGradient id="grad1_3" x1="43.8%" y1="0%" x2="100%" y2="100%"><stop offset="14.444444444444446%" stop-color="#d96162" stop-opacity="1"></stop><stop offset="85.55555555555554%" stop-color="#af4b6d" stop-opacity="1"></stop></linearGradient></defs><defs><linearGradient id="grad1_4" x1="43.8%" y1="0%" x2="100%" y2="100%"><stop offset="14.444444444444446%" stop-color="#7c3e6b" stop-opacity="1"></stop><stop offset="85.55555555555554%" stop-color="#af4b6d" stop-opacity="1"></stop></linearGradient></defs><defs><linearGradient id="grad1_5" x1="43.8%" y1="0%" x2="100%" y2="100%"><stop offset="14.444444444444446%" stop-color="#7c3e6b" stop-opacity="1"></stop><stop offset="85.55555555555554%" stop-color="#49335c" stop-opacity="1"></stop></linearGradient></defs><defs><linearGradient id="grad1_6" x1="43.8%" y1="0%" x2="100%" y2="100%"><stop offset="14.444444444444446%" stop-color="#1d2540" stop-opacity="1"></stop><stop offset="85.55555555555554%" stop-color="#49335c" stop-opacity="1"></stop></linearGradient></defs><defs><linearGradient id="grad1_7" x1="43.8%" y1="0%" x2="100%" y2="100%"><stop offset="14.444444444444446%" stop-color="#1d2540" stop-opacity="1"></stop><stop offset="85.55555555555554%" stop-color="#001220" stop-opacity="1"></stop></linearGradient></defs><defs><linearGradient id="grad2_0" x1="0%" y1="0%" x2="56.3%" y2="100%"><stop offset="14.444444444444446%" stop-color="#fbae3c" stop-opacity="1"></stop><stop offset="85.55555555555554%" stop-color="#fbae3c" stop-opacity="1"></stop></linearGradient></defs><defs><linearGradient id="grad2_1" x1="0%" y1="0%" x2="56.3%" y2="100%"><stop offset="14.444444444444446%" stop-color="#f48350" stop-opacity="1"></stop><stop offset="85.55555555555554%" stop-color="#fbae3c" stop-opacity="1"></stop></linearGradient></defs><defs><linearGradient id="grad2_2" x1="0%" y1="0%" x2="56.3%" y2="100%"><stop offset="14.444444444444446%" stop-color="#f48350" stop-opacity="1"></stop><stop offset="85.55555555555554%" stop-color="#d96162" stop-opacity="1"></stop></linearGradient></defs><defs><linearGradient id="grad2_3" x1="0%" y1="0%" x2="56.3%" y2="100%"><stop offset="14.444444444444446%" stop-color="#af4b6d" stop-opacity="1"></stop><stop offset="85.55555555555554%" stop-color="#d96162" stop-opacity="1"></stop></linearGradient></defs><defs><linearGradient id="grad2_4" x1="0%" y1="0%" x2="56.3%" y2="100%"><stop offset="14.444444444444446%" stop-color="#af4b6d" stop-opacity="1"></stop><stop offset="85.55555555555554%" stop-color="#7c3e6b" stop-opacity="1"></stop></linearGradient></defs><defs><linearGradient id="grad2_5" x1="0%" y1="0%" x2="56.3%" y2="100%"><stop offset="14.444444444444446%" stop-color="#49335c" stop-opacity="1"></stop><stop offset="85.55555555555554%" stop-color="#7c3e6b" stop-opacity="1"></stop></linearGradient></defs><defs><linearGradient id="grad2_6" x1="0%" y1="0%" x2="56.3%" y2="100%"><stop offset="14.444444444444446%" stop-color="#49335c" stop-opacity="1"></stop><stop offset="85.55555555555554%" stop-color="#1d2540" stop-opacity="1"></stop></linearGradient></defs><defs><linearGradient id="grad2_7" x1="0%" y1="0%" x2="56.3%" y2="100%"><stop offset="14.444444444444446%" stop-color="#001220" stop-opacity="1"></stop><stop offset="85.55555555555554%" stop-color="#1d2540" stop-opacity="1"></stop></linearGradient></defs><g transform="translate(960, 0)"><path d="M0 324C-57.5 316 -114.9 308 -162 280.6C-209.1 253.2 -245.8 206.5 -271.1 156.5C-296.3 106.5 -310.2 53.3 -324 0L0 0Z" fill="#0c1c30"></path><path d="M0 283.5C-50.3 276.5 -100.6 269.5 -141.7 245.5C-182.9 221.6 -215.1 180.7 -237.2 136.9C-259.3 93.2 -271.4 46.6 -283.5 0L0 0Z" fill="#312c4f"></path><path d="M0 243C-43.1 237 -86.2 231 -121.5 210.4C-156.8 189.9 -184.3 154.9 -203.3 117.4C-222.3 79.9 -232.6 39.9 -243 0L0 0Z" fill="#623965"></path><path d="M0 202.5C-35.9 197.5 -71.8 192.5 -101.2 175.4C-130.7 158.3 -153.6 129.1 -169.4 97.8C-185.2 66.6 -193.9 33.3 -202.5 0L0 0Z" fill="#96446e"></path><path d="M0 162C-28.7 158 -57.5 154 -81 140.3C-104.5 126.6 -122.9 103.2 -135.5 78.3C-148.2 53.3 -155.1 26.6 -162 0L0 0Z" fill="#c55469"></path><path d="M0 121.5C-21.5 118.5 -43.1 115.5 -60.7 105.2C-78.4 95 -92.2 77.4 -101.6 58.7C-111.1 39.9 -116.3 20 -121.5 0L0 0Z" fill="#e9705a"></path><path d="M0 81C-14.4 79 -28.7 77 -40.5 70.1C-52.3 63.3 -61.4 51.6 -67.8 39.1C-74.1 26.6 -77.5 13.3 -81 0L0 0Z" fill="#fa9845"></path><path d="M0 40.5C-7.2 39.5 -14.4 38.5 -20.2 35.1C-26.1 31.7 -30.7 25.8 -33.9 19.6C-37 13.3 -38.8 6.7 -40.5 0L0 0Z" fill="#fbae3c"></path></g><g transform="translate(0, 540)"><path d="M0 -324C57.2 -315.8 114.5 -307.7 162 -280.6C209.5 -253.5 247.4 -207.4 272.8 -157.5C298.2 -107.6 311.1 -53.8 324 0L0 0Z" fill="#0c1c30"></path><path d="M0 -283.5C50.1 -276.4 100.1 -269.2 141.7 -245.5C183.4 -221.8 216.5 -181.5 238.7 -137.8C260.9 -94.1 272.2 -47.1 283.5 0L0 0Z" fill="#312c4f"></path><path d="M0 -243C42.9 -236.9 85.8 -230.8 121.5 -210.4C157.2 -190.1 185.6 -155.6 204.6 -118.1C223.6 -80.7 233.3 -40.3 243 0L0 0Z" fill="#623965"></path><path d="M0 -202.5C35.8 -197.4 71.5 -192.3 101.2 -175.4C131 -158.4 154.6 -129.6 170.5 -98.4C186.4 -67.2 194.4 -33.6 202.5 0L0 0Z" fill="#96446e"></path><path d="M0 -162C28.6 -157.9 57.2 -153.8 81 -140.3C104.8 -126.7 123.7 -103.7 136.4 -78.8C149.1 -53.8 155.5 -26.9 162 0L0 0Z" fill="#c55469"></path><path d="M0 -121.5C21.5 -118.4 42.9 -115.4 60.7 -105.2C78.6 -95.1 92.8 -77.8 102.3 -59.1C111.8 -40.3 116.7 -20.2 121.5 0L0 0Z" fill="#e9705a"></path><path d="M0 -81C14.3 -79 28.6 -76.9 40.5 -70.1C52.4 -63.4 61.9 -51.9 68.2 -39.4C74.5 -26.9 77.8 -13.4 81 0L0 0Z" fill="#fa9845"></path><path d="M0 -40.5C7.2 -39.5 14.3 -38.5 20.2 -35.1C26.2 -31.7 30.9 -25.9 34.1 -19.7C37.3 -13.4 38.9 -6.7 40.5 0L0 0Z" fill="#fbae3c"></path></g></svg>