<svg id="visual" viewBox="0 0 675 900" width="675" height="900" xmlns="http://www.w3.org/2000/svg" xmlns:xlink="http://www.w3.org/1999/xlink" version="1.1"><rect x="0" y="0" width="675" height="900" fill="#001220"></rect><defs><linearGradient id="grad1_0" x1="0%" y1="0%" x2="100%" y2="100%"><stop offset="30%" stop-color="#fbae3c" stop-opacity="1"></stop><stop offset="70%" stop-color="#fbae3c" stop-opacity="1"></stop></linearGradient></defs><defs><linearGradient id="grad1_1" x1="0%" y1="0%" x2="100%" y2="100%"><stop offset="30%" stop-color="#fbae3c" stop-opacity="1"></stop><stop offset="70%" stop-color="#e1685e" stop-opacity="1"></stop></linearGradient></defs><defs><linearGradient id="grad1_2" x1="0%" y1="0%" x2="100%" y2="100%"><stop offset="30%" stop-color="#96446e" stop-opacity="1"></stop><stop offset="70%" stop-color="#e1685e" stop-opacity="1"></stop></linearGradient></defs><defs><linearGradient id="grad1_3" x1="0%" y1="0%" x2="100%" y2="100%"><stop offset="30%" stop-color="#96446e" stop-opacity="1"></stop><stop offset="70%" stop-color="#3d3056" stop-opacity="1"></stop></linearGradient></defs><defs><linearGradient id="grad1_4" x1="0%" y1="0%" x2="100%" y2="100%"><stop offset="30%" stop-color="#001220" stop-opacity="1"></stop><stop offset="70%" stop-color="#3d3056" stop-opacity="1"></stop></linearGradient></defs><defs><linearGradient id="grad2_0" x1="0%" y1="0%" x2="100%" y2="100%"><stop offset="30%" stop-color="#fbae3c" stop-opacity="1"></stop><stop offset="70%" stop-color="#fbae3c" stop-opacity="1"></stop></linearGradient></defs><defs><linearGradient id="grad2_1" x1="0%" y1="0%" x2="100%" y2="100%"><stop offset="30%" stop-color="#e1685e" stop-opacity="1"></stop><stop offset="70%" stop-color="#fbae3c" stop-opacity="1"></stop></linearGradient></defs><defs><linearGradient id="grad2_2" x1="0%" y1="0%" x2="100%" y2="100%"><stop offset="30%" stop-color="#e1685e" stop-opacity="1"></stop><stop offset="70%" stop-color="#96446e" stop-opacity="1"></stop></linearGradient></defs><defs><linearGradient id="grad2_3" x1="0%" y1="0%" x2="100%" y2="100%"><stop offset="30%" stop-color="#3d3056" stop-opacity="1"></stop><stop offset="70%" stop-color="#96446e" stop-opacity="1"></stop></linearGradient></defs><defs><linearGradient id="grad2_4" x1="0%" y1="0%" x2="100%" y2="100%"><stop offset="30%" stop-color="#3d3056" stop-opacity="1"></stop><stop offset="70%" stop-color="#001220" stop-opacity="1"></stop></linearGradient></defs><g transform="translate(675, 0)"><path d="M0 337.5C-34.1 304.8 -68.2 272 -106 255.9C-143.8 239.8 -185.3 240.4 -222.7 222.7C-260.1 205.1 -293.4 169.3 -311.8 129.2C-330.2 89 -333.9 44.5 -337.5 0L0 0Z" fill="#18223c"></path><path d="M0 270C-27.3 243.8 -54.6 217.6 -84.8 204.7C-115.1 191.9 -148.3 192.3 -178.2 178.2C-208.1 164.1 -234.7 135.4 -249.4 103.3C-264.2 71.2 -267.1 35.6 -270 0L0 0Z" fill="#683a67"></path><path d="M0 202.5C-20.5 182.9 -40.9 163.2 -63.6 153.5C-86.3 143.9 -111.2 144.2 -133.6 133.6C-156.1 123.1 -176 101.6 -187.1 77.5C-198.1 53.4 -200.3 26.7 -202.5 0L0 0Z" fill="#c0526a"></path><path d="M0 135C-13.6 121.9 -27.3 108.8 -42.4 102.4C-57.5 95.9 -74.1 96.1 -89.1 89.1C-104.1 82 -117.3 67.7 -124.7 51.7C-132.1 35.6 -133.5 17.8 -135 0L0 0Z" fill="#f6884d"></path><path d="M0 67.5C-6.8 61 -13.6 54.4 -21.2 51.2C-28.8 48 -37.1 48.1 -44.5 44.5C-52 41 -58.7 33.9 -62.4 25.8C-66 17.8 -66.8 8.9 -67.5 0L0 0Z" fill="#fbae3c"></path></g><g transform="translate(0, 900)"><path d="M0 -337.5C43.3 -332.7 86.6 -328 129.2 -311.8C171.7 -295.7 213.4 -268.1 230.5 -230.5C247.7 -192.9 240.3 -145.3 254.1 -105.2C267.8 -65.1 302.7 -32.6 337.5 0L0 0Z" fill="#18223c"></path><path d="M0 -270C34.7 -266.2 69.3 -262.4 103.3 -249.4C137.3 -236.5 170.7 -214.5 184.4 -184.4C198.1 -154.3 192.3 -116.3 203.3 -84.2C214.2 -52.1 242.1 -26.1 270 0L0 0Z" fill="#683a67"></path><path d="M0 -202.5C26 -199.6 52 -196.8 77.5 -187.1C103 -177.4 128 -160.9 138.3 -138.3C148.6 -115.8 144.2 -87.2 152.4 -63.1C160.7 -39.1 181.6 -19.5 202.5 0L0 0Z" fill="#c0526a"></path><path d="M0 -135C17.3 -133.1 34.7 -131.2 51.7 -124.7C68.7 -118.3 85.3 -107.2 92.2 -92.2C99.1 -77.2 96.1 -58.1 101.6 -42.1C107.1 -26.1 121.1 -13 135 0L0 0Z" fill="#f6884d"></path><path d="M0 -67.5C8.7 -66.5 17.3 -65.6 25.8 -62.4C34.3 -59.1 42.7 -53.6 46.1 -46.1C49.5 -38.6 48.1 -29.1 50.8 -21C53.6 -13 60.5 -6.5 67.5 0L0 0Z" fill="#fbae3c"></path></g></svg>