<svg id="visual" viewBox="0 0 900 600" width="900" height="600" xmlns="http://www.w3.org/2000/svg" xmlns:xlink="http://www.w3.org/1999/xlink" version="1.1"><rect x="0" y="0" width="900" height="600" fill="#001220"></rect><defs><linearGradient id="grad1_0" x1="33.3%" y1="0%" x2="100%" y2="100%"><stop offset="20%" stop-color="#001220" stop-opacity="1"></stop><stop offset="80%" stop-color="#001220" stop-opacity="1"></stop></linearGradient></defs><defs><linearGradient id="grad2_0" x1="0%" y1="0%" x2="66.7%" y2="100%"><stop offset="20%" stop-color="#001220" stop-opacity="1"></stop><stop offset="80%" stop-color="#001220" stop-opacity="1"></stop></linearGradient></defs><g transform="translate(900, 0)"><path d="M0 486.7C-58 469.3 -115.9 451.9 -179.1 432.4C-242.3 412.8 -310.6 391.1 -344.2 344.2C-377.8 297.2 -376.5 225 -394.5 163.4C-412.5 101.8 -449.6 50.9 -486.7 0L0 0Z" fill="#FBAE3C"></path></g><g transform="translate(0, 600)"><path d="M0 -486.7C58.5 -463 117.1 -439.2 171.4 -413.9C225.8 -388.6 276 -361.9 325.3 -325.3C374.6 -288.6 422.9 -242.1 449.7 -186.3C476.5 -130.4 481.6 -65.2 486.7 0L0 0Z" fill="#FBAE3C"></path></g></svg>